# xmcd
#
# Track frame offsets:
#	150
#	14247
#	28470
#	46305
#	59610
#	72255
#	84367
#	95332
#	114372
#	127475
#	143095
#	159132
#	175275
#	190092
#	202500
#	215587
# Disc length: 3074 seconds
# Revision: 4
# Processed by: cddbd v1.5.2PL0 Copyright (c) Steve Scherf et al.
#
# Submitted via: libkcddb 0.31
#
DISCID=e50c0010
DTITLE=The Nashville Riders - Line Dancing Favourites
DYEAR=1900
DGENRE=Country
TTITLE0=I Like It, I Love It
TTITLE1=Cotton Eye Joe
TTITLE2=Swamp Thing
TTITLE3=Little Miss Honky Tonk
TTITLE4=Third Rock From The Sun
TTITLE5=I Try To Think About Elvis
TTITLE6=Chattahoochie
TTITLE7=Whose Bed Have Your Boots Been Under
TTITLE8=XXX's and 000's (An American Girl)
TTITLE9=God Blessed Texas
TTITLE10=Old Pop In An Oak
TTITLE11=Texas Cowboys
TTITLE12=I Want My Goodbye Back
TTITLE13=Gonna Get A Life
TTITLE14=Mi Vida Loca (My Crazy Life)
TTITLE15=Third Rate Romance
EXTD=
EXTT0=
EXTT1=
EXTT2=
EXTT3=
EXTT4=
EXTT5=
EXTT6=
EXTT7=
EXTT8=
EXTT9=
EXTT10=
EXTT11=
EXTT12=
EXTT13=
EXTT14=
EXTT15=
PLAYORDER=
